Coordinates
version=1
nRows=27
nColumns=12
inDegrees=yes

Units are S.I. units (second, meters, Newtons, ...)
Angles are in degrees

endheader
time	SC_y	SC_z	SC_x	AC_y	AC_z	AC_x	GH_y	GH_z	GH_yy	EL_x	PS_y
       0.0               -59.7          22.03          47.71          30.35         -11.75         -18.26          106.9           62.5         -105.7          27.94          110.4
   0.01592               -59.7          22.03          47.71          30.35         -11.75         -18.26          106.9          62.49         -105.7          27.95          110.4
   0.03184              -59.69          22.03           47.7          30.35         -11.75         -18.26          106.9          62.47         -105.7          27.96          110.4
   0.04776              -59.69          22.03           47.7          30.35         -11.75         -18.26          106.8          62.46         -105.7          27.97          110.4
   0.06367              -59.68          22.03          47.69          30.36         -11.75         -18.26          106.8          62.45         -105.7          27.98          110.4
   0.07959              -59.68          22.03          47.68          30.36         -11.74         -18.26          106.8          62.43         -105.7          27.99          110.4
   0.09551              -59.67          22.03          47.68          30.36         -11.74         -18.25          106.8          62.42         -105.7          28.01          110.4
    0.1114              -59.66          22.03          47.67          30.37         -11.74         -18.25          106.8           62.4         -105.7          28.02          110.4
    0.1273              -59.65          22.02          47.66          30.37         -11.74         -18.25          106.8          62.38         -105.7          28.04          110.4
    0.1433              -59.65          22.02          47.65          30.37         -11.74         -18.25          106.8          62.36         -105.7          28.05          110.4
    0.1592              -59.64          22.02          47.64          30.38         -11.74         -18.25          106.8          62.34         -105.7          28.07          110.4
    0.1751              -59.63          22.02          47.63          30.38         -11.73         -18.25          106.8          62.32         -105.8          28.09          110.4
     0.191              -59.62          22.02          47.62          30.39         -11.73         -18.25          106.8           62.3         -105.8          28.11          110.4
    0.2069              -59.61          22.02          47.61          30.39         -11.73         -18.25          106.8          62.27         -105.8          28.13          110.4
    0.2229               -59.6          22.02           47.6           30.4         -11.73         -18.24          106.7          62.24         -105.8          28.16          110.4
    0.2388              -59.59          22.02          47.58           30.4         -11.72         -18.24          106.7          62.21         -105.8          28.18          110.4
    0.2547              -59.57          22.02          47.57          30.41         -11.72         -18.24          106.7          62.18         -105.8          28.21          110.5
    0.2706              -59.56          22.02          47.55          30.42         -11.72         -18.24          106.7          62.14         -105.8          28.24          110.5
    0.2865              -59.54          22.01          47.53          30.43         -11.71         -18.24          106.7           62.1         -105.9          28.28          110.5
    0.3025              -59.52          22.01          47.51          30.44         -11.71         -18.23          106.7          62.06         -105.9          28.31          110.5
    0.3184              -59.51          22.01          47.49          30.45         -11.71         -18.23          106.6          62.01         -105.9          28.35          110.5
    0.3343              -59.48          22.01          47.47          30.46          -11.7         -18.23          106.6          61.96         -105.9           28.4          110.5
    0.3502              -59.46          22.01          47.44          30.47          -11.7         -18.22          106.6           61.9         -106.0          28.45          110.5
    0.3661              -59.44           22.0          47.41          30.48         -11.69         -18.22          106.5          61.84         -106.0           28.5          110.6
     0.382              -59.41           22.0          47.38           30.5         -11.68         -18.21          106.5          61.77         -106.0          28.56          110.6
     0.398              -59.37           22.0          47.35          30.51         -11.68         -18.21          106.5          61.69         -106.1          28.63          110.6
    0.4139              -59.34          21.99          47.31          30.53         -11.67          -18.2          106.4           61.6         -106.1          28.71          110.6
